# Blender 5.0.1
# www.blender.org
mtllib turret_00.mtl
o gun
v 10.987135 -9.907356 6.662424
v 10.987135 -3.070496 6.662424
v 10.987135 -9.907356 13.762955
v 10.987135 -3.070496 13.762955
v -9.024719 -9.907356 6.662426
v -9.024719 -3.070496 6.662426
v -9.024719 -9.907356 13.762957
v -9.024719 -3.070496 13.762957
v 14.147737 -10.997048 -5.830584
v 14.147737 -4.270204 -5.830584
v 14.147738 -10.997048 6.662425
v 14.147738 -4.270204 6.662425
v -11.276813 -10.997048 -5.830582
v -11.276813 -4.270204 -5.830582
v -11.276811 -10.997048 6.662427
v -11.276811 -4.270204 6.662427
v 19.180391 -12.328592 -4.279046
v 19.180391 -2.938661 -4.279046
v 19.180391 -2.938661 5.110887
v 19.180391 -12.328592 5.110887
v -16.309465 -12.328592 5.110889
v -16.309465 -2.938661 5.110889
v -16.309465 -2.938661 -4.279043
v -16.309465 -12.328592 -4.279043
v 15.174124 -12.328592 -4.279046
v 15.174124 -12.328592 5.110887
v 14.147737 -4.270205 -5.830584
v 19.180391 -5.601748 -4.279046
v 19.180389 -6.358944 3.041015
v 19.180389 -8.215166 2.272142
v 19.180389 -8.984038 0.415920
v 19.180389 -8.215166 -1.440301
v 19.180389 -6.358944 -2.209174
v 19.180389 -4.502722 -1.440301
v 19.180389 -3.733850 0.415920
v 19.180389 -4.502722 2.272142
v 24.430578 -6.358944 3.041015
v 24.430578 -8.215166 2.272142
v 24.430578 -8.984038 0.415920
v 24.430578 -8.215166 -1.440302
v 24.430578 -6.358944 -2.209175
v 24.430578 -4.502722 -1.440302
v 24.430578 -3.733850 0.415920
v 24.430578 -4.502722 2.272142
v 39.623795 -6.358944 -0.745177
v 39.623795 -5.537926 -0.405100
v 39.623795 -5.197848 0.415919
v 39.623795 -5.537926 1.236937
v 39.623795 -6.358944 1.577014
v 39.623795 -7.179962 1.236937
v 39.623795 -7.520039 0.415919
v 39.623795 -7.179962 -0.405100
v 24.430578 -6.358944 -0.745176
v 24.430578 -5.537926 -0.405099
v 24.430578 -5.197848 0.415920
v 24.430578 -5.537926 1.236938
v 24.430578 -6.358944 1.577015
v 24.430578 -7.179962 1.236938
v 24.430578 -7.520040 0.415920
v 24.430578 -7.179962 -0.405099
v 33.859020 -6.358944 2.086554
v 33.859020 -7.540261 1.597236
v 33.859020 -8.029579 0.415919
v 33.859020 -7.540261 -0.765398
v 33.859020 -6.358944 -1.254716
v 33.859020 -5.177627 -0.765398
v 33.859020 -4.688309 0.415919
v 33.859020 -5.177627 1.597236
v 37.200291 -6.358944 2.086554
v 37.200291 -7.540261 1.597236
v 37.200291 -8.029579 0.415919
v 37.200291 -7.540261 -0.765398
v 37.200291 -6.358944 -1.254716
v 37.200291 -5.177626 -0.765398
v 37.200291 -4.688309 0.415919
v 37.200291 -5.177626 1.597236
v -23.409994 -1.736903 -9.909911
v -23.409994 -1.736904 9.793035
v -16.309465 -1.736903 -9.909911
v -16.309464 -1.736904 9.793035
v -23.409994 -12.526005 -9.909911
v -23.409994 -12.526006 9.793035
v -16.309465 -12.526005 -9.909911
v -16.309464 -12.526006 9.793034
v 14.147737 -4.270204 -5.830584
v -16.309465 -4.270204 -5.830581
v 14.147738 -2.938661 -4.279046
v -16.309465 -2.938661 -4.279043
v -16.309465 -1.736903 -6.000337
v 14.147737 -1.736903 -6.000340
v -16.309465 -3.171707 -7.225286
v 14.147737 -3.171707 -7.225289
v -21.135126 -1.736904 -5.079058
v -21.135126 -0.702333 -5.079058
v -22.236673 -1.736904 -5.535333
v -22.236673 -0.702333 -5.535333
v -22.692947 -1.736904 -6.636879
v -22.692947 -0.702333 -6.636879
v -22.236673 -1.736904 -7.738427
v -22.236673 -0.702333 -7.738427
v -21.135126 -1.736904 -8.194702
v -21.135126 -0.702333 -8.194702
v -20.033577 -1.736904 -7.738427
v -20.033577 -0.702333 -7.738427
v -19.577303 -1.736904 -6.636879
v -19.577303 -0.702333 -6.636879
v -20.033577 -1.736904 -5.535333
v -20.033577 -0.702333 -5.535333
v -21.135126 -1.736904 7.715938
v -21.135126 -0.702333 7.715938
v -22.236673 -1.736904 7.259662
v -22.236673 -0.702333 7.259662
v -22.692947 -1.736904 6.158115
v -22.692947 -0.702333 6.158115
v -22.236673 -1.736904 5.056568
v -22.236673 -0.702333 5.056568
v -21.135126 -1.736904 4.600293
v -21.135126 -0.702333 4.600293
v -20.033577 -1.736904 5.056568
v -20.033577 -0.702333 5.056568
v -19.577303 -1.736904 6.158115
v -19.577303 -0.702333 6.158115
v -20.033577 -1.736904 7.259662
v -20.033577 -0.702333 7.259662
v -16.309464 -9.795293 -5.830581
v 14.147737 -9.795290 -5.830584
v -16.309464 -11.126836 -4.279043
v 14.147738 -11.126833 -4.279046
v 14.147737 -12.328592 -6.000340
v -16.309464 -12.328594 -6.000337
v 14.147737 -10.893787 -7.225290
v -16.309464 -10.893789 -7.225287
v -21.135126 -13.560575 7.715938
v -21.135126 -12.526005 7.715938
v -22.236673 -13.560575 7.259662
v -22.236673 -12.526005 7.259662
v -22.692947 -13.560575 6.158115
v -22.692947 -12.526005 6.158115
v -22.236673 -13.560575 5.056568
v -22.236673 -12.526005 5.056568
v -21.135126 -13.560575 4.600293
v -21.135126 -12.526005 4.600293
v -20.033577 -13.560575 5.056568
v -20.033577 -12.526005 5.056568
v -19.577303 -13.560575 6.158115
v -19.577303 -12.526005 6.158115
v -20.033577 -13.560575 7.259662
v -20.033577 -12.526005 7.259662
v -21.135126 -13.560575 -5.079058
v -21.135126 -12.526005 -5.079058
v -22.236673 -13.560575 -5.535333
v -22.236673 -12.526005 -5.535333
v -22.692947 -13.560575 -6.636879
v -22.692947 -12.526005 -6.636879
v -22.236673 -13.560575 -7.738427
v -22.236673 -12.526005 -7.738427
v -21.135126 -13.560575 -8.194702
v -21.135126 -12.526005 -8.194702
v -20.033577 -13.560575 -7.738427
v -20.033577 -12.526005 -7.738427
v -19.577303 -13.560575 -6.636879
v -19.577303 -12.526005 -6.636879
v -20.033577 -13.560575 -5.535333
v -20.033577 -12.526005 -5.535333
vn 1.0000 -0.0000 -0.0000
vn -0.0000 -0.0000 1.0000
vn -1.0000 -0.0000 -0.0000
vn -0.0000 -0.0000 -1.0000
vn -0.0000 -1.0000 -0.0000
vn -0.0000 1.0000 -0.0000
vn 0.2946 -0.0000 0.9556
vn -0.0000 -0.7589 0.6513
vn -0.0000 0.7589 0.6513
vn -0.2946 -0.0000 0.9556
vn -0.0000 -0.7589 -0.6513
vn -0.2946 -0.0000 -0.9556
vn -0.0000 0.7589 -0.6513
vn 0.2946 -0.0000 -0.9556
vn -0.0000 -0.3827 0.9239
vn -0.0000 -0.9239 0.3827
vn -0.0000 -0.9239 -0.3827
vn -0.0000 -0.3827 -0.9239
vn -0.0000 0.3827 -0.9239
vn -0.0000 0.9239 -0.3827
vn -0.0000 0.9239 0.3827
vn -0.0000 0.3827 0.9239
vn -0.0000 0.8199 0.5725
vn -0.0000 0.6493 -0.7605
vn -0.0000 -0.7856 -0.6187
vn -0.3827 -0.0000 0.9239
vn -0.9239 -0.0000 0.3827
vn -0.9239 -0.0000 -0.3827
vn -0.3827 -0.0000 -0.9239
vn 0.3827 -0.0000 -0.9239
vn 0.9239 -0.0000 -0.3827
vn 0.9239 -0.0000 0.3827
vn 0.3827 -0.0000 0.9239
vn -0.0000 -0.8199 0.5725
vn -0.0000 -0.6493 -0.7605
vn -0.0000 0.7856 -0.6187
vt 0.558121 0.815560
vt 0.423829 0.815560
vt 0.423829 0.681175
vt 0.558121 0.681175
vt 0.794656 0.134385
vt 0.660272 0.134385
vt 0.660272 -0.000000
vt 0.794656 0.000000
vt 0.423829 0.863215
vt 0.289548 0.863215
vt 0.289548 0.728830
vt 0.423829 0.728830
vt 0.794656 0.268769
vt 0.660272 0.268769
vt 0.794656 0.268770
vt 0.794656 0.403154
vt 0.660272 0.403154
vt 0.660272 0.268770
vt 0.742781 0.661087
vt 0.742781 0.795472
vt 0.608397 0.795472
vt 0.608397 0.661087
vt 0.608397 0.661087
vt 0.608397 0.476647
vt 0.786111 0.476647
vt 0.786111 0.661087
vt 0.158395 0.577426
vt 0.026173 0.577426
vt 0.026173 0.406694
vt 0.158395 0.406694
vt 0.000000 0.795646
vt 0.000000 0.611222
vt 0.177714 0.611222
vt 0.177714 0.795646
vt 0.450002 0.510443
vt 0.582224 0.510443
vt 0.582224 0.681175
vt 0.450002 0.681175
vt 0.630907 0.000000
vt 0.630907 0.238324
vt 0.453193 0.238323
vt 0.453193 0.000000
vt 0.184568 0.611222
vt 0.000000 0.611222
vt 0.660272 0.033796
vt 0.660272 0.204528
vt 0.660272 0.272119
vt 0.660272 0.442851
vt 0.630907 0.476647
vt 0.630907 0.238324
vt 0.000000 0.372898
vt 0.184568 0.372898
vt 0.423829 0.204528
vt 0.423829 0.033796
vt 0.000000 0.973360
vt 0.000000 0.795646
vt 0.026903 0.795646
vt 0.026903 0.973360
vt 0.423829 0.476647
vt 0.608397 0.476647
vt 0.453193 0.476647
vt 0.453193 0.238324
vt 0.423829 0.272119
vt 0.423829 0.442851
vt 0.642192 0.980040
vt 0.608397 0.953867
vt 0.608397 0.821645
vt 0.642192 0.847818
vt 0.608397 0.821645
vt 0.642192 0.795472
vt 0.153609 0.832132
vt 0.188865 0.832132
vt 0.188865 0.868618
vt 0.153609 0.868618
vt 0.494342 0.885822
vt 0.459085 0.885822
vt 0.459085 0.850691
vt 0.494342 0.850691
vt 0.459085 0.815560
vt 0.494342 0.815560
vt 0.459085 0.888531
vt 0.423829 0.888531
vt 0.423829 0.852045
vt 0.459085 0.852045
vt 0.459085 0.815560
vt 0.494342 0.815560
vt 0.529598 0.815560
vt 0.529598 0.850691
vt 0.494342 0.850691
vt 0.794656 0.814518
vt 0.794656 0.775264
vt 0.821686 0.746798
vt 0.859912 0.745796
vt 0.886942 0.772845
vt 0.886942 0.812099
vt 0.859912 0.840565
vt 0.821686 0.841567
vt 0.529598 0.885822
vt 0.494342 0.885822
vt 0.153609 0.795646
vt 0.188865 0.795646
vt 0.289548 0.795136
vt 0.262518 0.823605
vt 0.224292 0.824609
vt 0.197262 0.797561
vt 0.197262 0.758303
vt 0.224292 0.729834
vt 0.262518 0.728830
vt 0.289548 0.755879
vt 0.043041 0.897673
vt 0.043041 0.795646
vt 0.059179 0.795646
vt 0.059179 0.897673
vt 0.091455 0.897673
vt 0.091455 0.795646
vt 0.106993 0.795646
vt 0.106993 0.897673
vt 0.122532 0.795646
vt 0.122532 0.897673
vt 0.059179 0.897673
vt 0.059179 0.795646
vt 0.075317 0.795646
vt 0.075317 0.897673
vt 0.091455 0.795646
vt 0.091455 0.897673
vt 0.153609 0.795646
vt 0.153609 0.897673
vt 0.138070 0.897673
vt 0.138070 0.795646
vt 0.823519 0.842010
vt 0.835475 0.854601
vt 0.835475 0.871963
vt 0.823519 0.883927
vt 0.806612 0.883483
vt 0.794656 0.870893
vt 0.794656 0.853530
vt 0.806612 0.841567
vt 0.122532 0.897673
vt 0.122532 0.795646
vt 0.026903 0.897673
vt 0.026903 0.795646
vt 0.222168 0.837646
vt 0.234124 0.825054
vt 0.251032 0.824609
vt 0.262987 0.836573
vt 0.262987 0.853937
vt 0.251032 0.866529
vt 0.234124 0.866973
vt 0.222168 0.855009
vt 0.529598 0.911683
vt 0.552035 0.911683
vt 0.552035 0.934903
vt 0.529598 0.934903
vt 0.580558 0.937960
vt 0.558121 0.937960
vt 0.558121 0.915602
vt 0.580558 0.915602
vt 0.558121 0.893245
vt 0.580558 0.893245
vt 0.446266 0.934971
vt 0.423829 0.934971
vt 0.423829 0.911751
vt 0.446266 0.911751
vt 0.423829 0.888531
vt 0.446266 0.888531
vt 0.602996 0.893245
vt 0.602996 0.915602
vt 0.719004 0.446890
vt 0.719004 0.421908
vt 0.736206 0.403792
vt 0.760533 0.403154
vt 0.777735 0.420368
vt 0.777735 0.445350
vt 0.760533 0.463466
vt 0.736206 0.464103
vt 0.602996 0.937960
vt 0.529598 0.888463
vt 0.552035 0.888463
vt 0.719004 0.445352
vt 0.701802 0.463470
vt 0.677474 0.464109
vt 0.660272 0.446895
vt 0.660272 0.421912
vt 0.677474 0.403793
vt 0.701802 0.403154
vt 0.719004 0.420368
vt 0.842338 0.000000
vt 0.842338 0.372898
vt 0.794656 0.372898
vt 0.794656 0.000000
vt 0.211923 0.000000
vt 0.211923 0.372898
vt 0.000000 0.372898
vt 0.000000 0.000000
vt 0.842338 0.372898
vt 0.842338 0.745796
vt 0.794656 0.745796
vt 0.794656 0.372898
vt 0.211923 0.372898
vt 0.211923 -0.000000
vt 0.423829 0.000000
vt 0.423829 0.372898
vt 0.605803 0.681175
vt 0.605803 0.893245
vt 0.558121 0.681175
vt 0.742781 0.873157
vt 0.742781 0.661087
vt 0.790463 0.661087
vt 0.790463 0.873157
vt 0.935510 0.707640
vt 0.935510 0.912168
vt 0.902933 0.912168
vt 0.902933 0.707640
vt 0.998095 0.000000
vt 0.998095 0.204528
vt 0.969893 0.204528
vt 0.969893 0.000000
vt 0.328383 0.903490
vt 0.289548 0.897307
vt 0.289548 0.863215
vt 0.326041 0.863327
vt 0.723187 0.795472
vt 0.723187 1.000000
vt 0.696791 1.000000
vt 0.696791 0.795472
vt 0.406048 0.897306
vt 0.367215 0.903492
vt 0.369557 0.863330
vt 0.406048 0.863215
vt 0.177714 0.611222
vt 0.198034 0.611222
vt 0.198325 0.619857
vt 0.178005 0.619857
vt 0.198445 0.640705
vt 0.178126 0.640705
vt 0.198325 0.661553
vt 0.178005 0.661553
vt 0.198034 0.670188
vt 0.177714 0.670188
vt 0.174319 0.868618
vt 0.194640 0.868618
vt 0.194915 0.877253
vt 0.174594 0.877253
vt 0.195029 0.898101
vt 0.174707 0.898101
vt 0.198414 0.718909
vt 0.192351 0.728528
vt 0.183777 0.721060
vt 0.177714 0.700880
vt 0.177714 0.679808
vt 0.183777 0.670188
vt 0.192351 0.677657
vt 0.198414 0.697837
vt 0.194915 0.918949
vt 0.174594 0.918949
vt 0.194640 0.927585
vt 0.174319 0.927585
vt 0.922927 0.350898
vt 0.916865 0.341279
vt 0.916865 0.320207
vt 0.922927 0.300026
vt 0.931502 0.292558
vt 0.937565 0.302177
vt 0.937565 0.323249
vt 0.931502 0.343430
vt 0.262987 0.824609
vt 0.283307 0.824609
vt 0.283598 0.833245
vt 0.263278 0.833245
vt 0.283719 0.854093
vt 0.263399 0.854093
vt 0.283598 0.874941
vt 0.263278 0.874941
vt 0.283307 0.883576
vt 0.262987 0.883576
vt 0.153609 0.868618
vt 0.173930 0.868618
vt 0.174205 0.877253
vt 0.153884 0.877253
vt 0.174319 0.898101
vt 0.153998 0.898101
vt 0.856175 0.930563
vt 0.850112 0.940182
vt 0.841538 0.932714
vt 0.835475 0.912533
vt 0.835475 0.891461
vt 0.841538 0.881842
vt 0.850112 0.889310
vt 0.856175 0.909491
vt 0.174205 0.918949
vt 0.153884 0.918949
vt 0.173930 0.927585
vt 0.153609 0.927585
vt 0.269050 0.941916
vt 0.262987 0.932297
vt 0.262987 0.911225
vt 0.269050 0.891044
vt 0.277624 0.883576
vt 0.283687 0.893195
vt 0.283687 0.914267
vt 0.277624 0.934448
vt 0.968087 0.707640
vt 0.968087 0.912168
vt 0.642192 1.000000
vt 0.642192 0.795472
vt 0.670394 0.795472
vt 0.670394 1.000000
vt 0.328383 0.863215
vt 0.367215 0.869400
vt 0.367215 0.903492
vt 0.330724 0.903376
vt 0.696791 0.795472
vt 0.696791 1.000000
vt 0.670394 1.000000
vt 0.670394 0.795472
vt 0.835475 0.847749
vt 0.874309 0.841567
vt 0.871968 0.881729
vt 0.835475 0.881842
vt 0.874309 0.841567
vt 0.894629 0.841567
vt 0.894920 0.850202
vt 0.874600 0.850202
vt 0.895041 0.871050
vt 0.874721 0.871050
vt 0.894920 0.891898
vt 0.874600 0.891898
vt 0.894629 0.900534
vt 0.874309 0.900534
vt 0.742781 0.873157
vt 0.763103 0.873157
vt 0.763377 0.881792
vt 0.743056 0.881792
vt 0.763491 0.902640
vt 0.743170 0.902640
vt 0.815356 0.932647
vt 0.809294 0.942267
vt 0.800719 0.934799
vt 0.794656 0.914618
vt 0.794656 0.893546
vt 0.800719 0.883927
vt 0.809294 0.891395
vt 0.815356 0.911575
vt 0.763377 0.923488
vt 0.743056 0.923488
vt 0.763103 0.932124
vt 0.742781 0.932124
vt 0.465148 0.944161
vt 0.459085 0.934542
vt 0.459085 0.913470
vt 0.465148 0.893290
vt 0.473722 0.885821
vt 0.479785 0.895441
vt 0.479785 0.916513
vt 0.473722 0.936693
vt 0.222168 0.866973
vt 0.242488 0.866973
vt 0.242779 0.875609
vt 0.222459 0.875609
vt 0.242900 0.896457
vt 0.222580 0.896457
vt 0.242779 0.917305
vt 0.222459 0.917305
vt 0.242488 0.925940
vt 0.222168 0.925940
vt 0.763491 0.873157
vt 0.783813 0.873157
vt 0.784087 0.881792
vt 0.763766 0.881792
vt 0.784201 0.902640
vt 0.763880 0.902640
vt 0.500485 0.934542
vt 0.494422 0.944162
vt 0.485848 0.936693
vt 0.479785 0.916513
vt 0.479785 0.895441
vt 0.485848 0.885822
vt 0.494422 0.893290
vt 0.500485 0.913470
vt 0.784087 0.923488
vt 0.763766 0.923488
vt 0.783813 0.932124
vt 0.763491 0.932124
vt 0.506548 0.944162
vt 0.500485 0.934542
vt 0.500485 0.913470
vt 0.506548 0.893290
vt 0.515122 0.885822
vt 0.521185 0.895441
vt 0.521185 0.916513
vt 0.515122 0.936693
s 0
usemtl Material
f 1/1/1 2/2/1 4/3/1 3/4/1
f 3/5/2 4/6/2 8/7/2 7/8/2
f 7/9/3 8/10/3 6/11/3 5/12/3
f 5/13/4 6/14/4 2/6/4 1/5/4
f 3/15/5 7/16/5 5/17/5 1/18/5
f 8/19/6 4/20/6 2/21/6 6/22/6
f 17/23/1 18/24/1 19/25/1 20/26/1
f 11/27/2 12/28/2 16/29/2 15/30/2
f 21/31/3 22/32/3 23/33/3 24/34/3
f 13/35/4 14/36/4 10/37/4 9/38/4
f 20/39/5 21/40/5 24/41/5 17/42/5
f 12/28/7 11/27/7 20/43/7 19/44/7
f 11/45/8 15/46/8 21/40/8 20/39/8
f 16/47/9 12/48/9 19/49/9 22/50/9
f 15/30/10 16/29/10 22/51/10 21/52/10
f 13/53/11 9/54/11 17/42/11 24/41/11
f 20/55/6 17/56/6 25/57/6 26/58/6
f 24/59/12 23/60/12 14/36/12 13/35/12
f 18/61/6 23/62/6 22/50/6 19/49/6
f 14/63/13 23/62/13 18/61/13 10/64/13
f 17/65/14 9/66/14 27/67/14 28/68/14
f 10/69/14 18/70/14 28/68/14 27/67/14
f 37/71/15 29/72/15 30/73/15 38/74/15
f 38/75/16 30/76/16 31/77/16 39/78/16
f 39/78/17 31/77/17 32/79/17 40/80/17
f 40/81/18 32/82/18 33/83/18 41/84/18
f 41/84/19 33/83/19 34/2/19 42/85/19
f 42/86/20 34/87/20 35/88/20 43/89/20
f 30/90/3 29/91/3 36/92/3 35/93/3 34/94/3 33/95/3 32/96/3 31/97/3
f 43/89/21 35/88/21 36/98/21 44/99/21
f 44/100/22 36/101/22 29/72/22 37/71/22
f 37/102/1 38/103/1 39/104/1 40/105/1 41/106/1 42/107/1 43/108/1 44/109/1
f 53/110/15 45/111/15 46/112/15 54/113/15
f 54/114/16 46/115/16 47/116/16 55/117/16
f 55/117/17 47/116/17 48/118/17 56/119/17
f 56/120/18 48/121/18 49/122/18 57/123/18
f 57/123/19 49/122/19 50/124/19 58/125/19
f 58/126/20 50/127/20 51/128/20 59/129/20
f 46/130/3 45/131/3 52/132/3 51/133/3 50/134/3 49/135/3 48/136/3 47/137/3
f 59/129/21 51/128/21 52/138/21 60/139/21
f 60/140/22 52/141/22 45/111/22 53/110/22
f 53/142/1 54/143/1 55/144/1 56/145/1 57/146/1 58/147/1 59/148/1 60/149/1
f 69/150/15 61/151/15 62/152/15 70/153/15
f 70/154/16 62/155/16 63/156/16 71/157/16
f 71/157/17 63/156/17 64/158/17 72/159/17
f 72/160/18 64/161/18 65/162/18 73/163/18
f 73/163/19 65/162/19 66/164/19 74/165/19
f 74/159/20 66/166/20 67/167/20 75/157/20
f 62/168/3 61/169/3 68/170/3 67/171/3 66/172/3 65/173/3 64/174/3 63/175/3
f 75/157/21 67/167/21 68/176/21 76/154/21
f 76/177/22 68/178/22 61/151/22 69/150/22
f 69/179/1 70/180/1 71/181/1 72/182/1 73/183/1 74/184/1 75/185/1 76/186/1
f 77/187/6 78/188/6 80/189/6 79/190/6
f 79/191/1 80/192/1 84/193/1 83/194/1
f 83/195/5 84/196/5 82/197/5 81/198/5
f 81/199/3 82/200/3 78/201/3 77/202/3
f 79/203/4 83/204/4 81/158/4 77/205/4
f 84/206/2 80/207/2 78/208/2 82/209/2
f 88/210/23 87/211/23 90/212/23 89/213/23
f 92/214/24 91/215/24 89/216/24 90/217/24
f 87/218/1 85/219/1 92/220/1 90/221/1
f 85/222/25 86/223/25 91/224/25 92/225/25
f 86/226/3 88/227/3 89/228/3 91/229/3
f 93/230/26 94/231/26 96/232/26 95/233/26
f 95/233/27 96/232/27 98/234/27 97/235/27
f 97/235/28 98/234/28 100/236/28 99/237/28
f 99/237/29 100/236/29 102/238/29 101/239/29
f 101/240/30 102/241/30 104/242/30 103/243/30
f 103/243/31 104/242/31 106/244/31 105/245/31
f 96/246/6 94/247/6 108/248/6 106/249/6 104/250/6 102/251/6 100/252/6 98/253/6
f 105/245/32 106/244/32 108/254/32 107/255/32
f 107/255/33 108/254/33 94/256/33 93/257/33
f 93/258/5 95/259/5 97/260/5 99/261/5 101/262/5 103/263/5 105/264/5 107/265/5
f 109/266/26 110/267/26 112/268/26 111/269/26
f 111/269/27 112/268/27 114/270/27 113/271/27
f 113/271/28 114/270/28 116/272/28 115/273/28
f 115/273/29 116/272/29 118/274/29 117/275/29
f 117/276/30 118/277/30 120/278/30 119/279/30
f 119/279/31 120/278/31 122/280/31 121/281/31
f 112/282/6 110/283/6 124/284/6 122/285/6 120/286/6 118/287/6 116/288/6 114/289/6
f 121/281/32 122/280/32 124/290/32 123/291/32
f 123/291/33 124/290/33 110/292/33 109/293/33
f 109/294/5 111/295/5 113/296/5 115/297/5 117/298/5 119/299/5 121/300/5 123/301/5
f 128/302/34 127/303/34 130/211/34 129/210/34
f 132/304/35 131/305/35 129/306/35 130/307/35
f 127/308/3 125/309/3 132/310/3 130/311/3
f 125/312/36 126/313/36 131/314/36 132/315/36
f 126/316/1 128/317/1 129/318/1 131/319/1
f 133/320/26 134/321/26 136/322/26 135/323/26
f 135/323/27 136/322/27 138/324/27 137/325/27
f 137/325/28 138/324/28 140/326/28 139/327/28
f 139/327/29 140/326/29 142/328/29 141/329/29
f 141/330/30 142/331/30 144/332/30 143/333/30
f 143/333/31 144/332/31 146/334/31 145/335/31
f 136/336/6 134/337/6 148/338/6 146/339/6 144/340/6 142/341/6 140/342/6 138/343/6
f 145/335/32 146/334/32 148/344/32 147/345/32
f 147/345/33 148/344/33 134/346/33 133/347/33
f 133/348/5 135/349/5 137/350/5 139/351/5 141/352/5 143/353/5 145/354/5 147/355/5
f 149/356/26 150/357/26 152/358/26 151/359/26
f 151/359/27 152/358/27 154/360/27 153/361/27
f 153/361/28 154/360/28 156/362/28 155/363/28
f 155/363/29 156/362/29 158/364/29 157/365/29
f 157/366/30 158/367/30 160/368/30 159/369/30
f 159/369/31 160/368/31 162/370/31 161/371/31
f 152/372/6 150/373/6 164/374/6 162/375/6 160/376/6 158/377/6 156/378/6 154/379/6
f 161/371/32 162/370/32 164/380/32 163/381/32
f 163/381/33 164/380/33 150/382/33 149/383/33
f 149/384/5 151/385/5 153/386/5 155/387/5 157/388/5 159/389/5 161/390/5 163/391/5
o base
v 3.289960 -17.153496 -1.438576
v 3.289960 -16.037588 -2.554483
v 4.405868 -16.037588 -1.438577
v 3.289960 -12.328592 -2.554483
v 4.405868 -12.328592 -1.438577
v 3.289961 -17.153496 2.270420
v 4.405868 -16.037588 2.270420
v 3.289961 -16.037588 3.386327
v 3.289961 -12.328592 3.386327
v 4.405868 -12.328592 2.270420
v -0.419035 -17.153496 -1.438576
v -1.534942 -16.037588 -1.438576
v -0.419035 -16.037588 -2.554483
v -0.419035 -12.328592 -2.554483
v -1.534942 -12.328592 -1.438576
v -0.419035 -17.153496 2.270420
v -0.419035 -16.037588 3.386327
v -1.534942 -16.037588 2.270421
v -1.534942 -12.328592 2.270421
v -0.419035 -12.328592 3.386327
v 14.539022 -30.284424 2.270419
v 14.539022 -30.284424 -1.438578
v 10.830027 -30.284424 2.270419
v 10.830027 -30.284424 -1.438577
v 3.289960 -17.153496 -1.438576
v 3.289960 -16.037588 -2.554483
v -0.419035 -17.153496 -1.438576
v -0.419035 -16.037588 -2.554483
v -6.119934 -30.284424 -13.204277
v -6.119934 -29.168514 -14.320184
v -9.828930 -29.168514 -14.320184
v -9.828930 -30.284424 -13.204277
v -0.419035 -17.153494 2.270420
v -0.419035 -16.037586 3.386327
v 3.289961 -17.153494 2.270420
v 3.289961 -16.037586 3.386327
v -9.828928 -30.284420 14.036122
v -9.828928 -29.168514 15.152030
v -6.119932 -29.168514 15.152030
v -6.119932 -30.284420 14.036122
vn 0.5773 -0.5774 -0.5774
vn 0.5774 -0.5774 0.5774
vn -0.5774 -0.5774 -0.5774
vn -0.5774 -0.5774 0.5774
vn 0.7071 -0.7071 -0.0000
vn 0.7071 -0.0000 -0.7071
vn 0.7071 -0.0000 0.7071
vn -0.7071 -0.0000 0.7071
vn -0.7071 -0.7071 -0.0000
vn -0.7071 -0.0000 -0.7071
vn -0.7594 -0.6506 -0.0000
vn 1.0000 -0.0000 -0.0000
vn -0.0000 -0.0000 -1.0000
vn -0.0000 -0.0000 1.0000
vn -1.0000 -0.0000 -0.0000
vn -0.0000 -1.0000 -0.0000
vn 0.7594 0.6506 -0.0000
vn -0.0000 -0.6673 0.7448
vn -0.0000 -0.7071 -0.7071
vn 0.8819 -0.3333 -0.3333
vn -0.0000 0.6673 -0.7448
vn -0.8819 0.3333 0.3333
vn -0.0000 -0.6673 -0.7448
vn -0.0000 -0.7071 0.7071
vn -0.8819 0.3333 -0.3333
vn -0.0000 0.6673 0.7448
vn 0.8819 -0.3333 0.3333
vt 0.220077 0.467949
vt 0.198957 0.446030
vt 0.220077 0.445752
vt 0.290273 0.467949
vt 0.290273 0.445752
vt 0.311393 0.446030
vt 0.402709 0.467958
vt 0.402709 0.445746
vt 0.423829 0.446040
vt 0.332513 0.467958
vt 0.311393 0.446040
vt 0.332513 0.445746
vt 0.198957 0.373176
vt 0.220077 0.372898
vt 0.311393 0.373176
vt 0.290273 0.372898
vt 0.332513 0.372898
vt 0.311393 0.373193
vt 0.423829 0.373193
vt 0.402709 0.372898
vt 0.402709 0.728830
vt 0.332513 0.728830
vt 0.529598 0.888463
vt 0.529598 0.815560
vt 0.554505 0.815560
vt 0.554505 0.888463
vt 0.857597 0.076502
vt 0.842338 0.005213
vt 0.866694 0.000000
vt 0.881952 0.071289
vt 0.222168 0.894806
vt 0.197262 0.894806
vt 0.197262 0.824609
vt 0.222168 0.824609
vt 0.945989 -0.000000
vt 0.969893 0.006996
vt 0.969893 0.275924
vt 0.945989 0.268928
vt 0.290273 0.723066
vt 0.220077 0.723066
vt 0.862187 0.097950
vt 0.886542 0.092738
vt 0.866694 0.360932
vt 0.842338 0.366145
vt 0.962379 0.366145
vt 0.986571 0.372068
vt 0.986572 0.637791
vt 0.962379 0.631868
vt 0.945989 0.287075
vt 0.921693 0.292558
vt 0.916864 0.271162
vt 0.941160 0.265679
vt 0.872636 0.366145
vt 0.902933 0.369070
vt 0.902933 0.711598
vt 0.872636 0.708673
vt 0.921693 0.005482
vt 0.945989 -0.000000
vt 0.902933 0.368786
vt 0.933255 0.366145
vt 0.933255 0.704999
vt 0.902933 0.707640
vt 0.968088 0.713563
vt 0.992280 0.707640
vt 0.992280 0.973363
vt 0.968088 0.979286
vt 0.957551 0.658702
vt 0.933255 0.653220
vt 0.938083 0.631824
vt 0.962379 0.637306
vt 0.886542 -0.000000
vt 0.916865 0.002642
vt 0.916865 0.341496
vt 0.886542 0.338854
vt 0.933255 0.366145
vt 0.957551 0.371627
vt 0.842338 0.369070
vt 0.872636 0.366145
vt 0.872636 0.708673
vt 0.842338 0.711598
s 0
usemtl Material
f 165/392/37 166/393/37 167/394/37
f 170/395/38 171/396/38 172/397/38
f 175/398/39 176/399/39 177/400/39
f 180/401/40 181/402/40 182/403/40
f 170/395/41 165/392/41 167/394/41 171/396/41
f 166/393/42 168/404/42 169/405/42 167/394/42
f 173/406/43 172/397/43 171/396/43 174/407/43
f 183/408/44 182/403/44 181/402/44 184/409/44
f 175/398/45 180/401/45 182/403/45 176/399/45
f 178/410/46 177/400/46 176/399/46 179/411/46
f 180/401/47 175/398/47 188/412/47 187/413/47
f 167/394/48 169/405/48 174/407/48 171/396/48
f 177/414/49 178/415/49 168/416/49 166/417/49
f 172/418/50 173/419/50 184/420/50 181/421/50
f 182/403/51 183/408/51 179/411/51 176/399/51
f 185/422/52 187/423/52 188/424/52 186/425/52
f 175/426/49 165/427/49 186/428/49 188/429/49
f 165/392/53 170/395/53 185/430/53 186/431/53
f 170/432/50 180/433/50 187/434/50 185/435/50
f 189/436/54 191/437/54 196/438/54 193/439/54
f 193/440/55 196/441/55 195/442/55 194/443/55
f 190/444/56 189/445/56 193/446/56 194/447/56
f 192/448/57 190/449/57 194/443/57 195/442/57
f 191/450/58 192/451/58 195/452/58 196/453/58
f 197/454/59 199/455/59 204/456/59 201/457/59
f 201/458/60 204/459/60 203/460/60 202/461/60
f 198/462/61 197/463/61 201/464/61 202/465/61
f 200/466/62 198/467/62 202/461/62 203/460/62
f 199/468/63 200/469/63 203/470/63 204/471/63
